<?xml version="1.0" encoding="UTF-8" standalone="no"?>
<!DOCTYPE svg PUBLIC "-//W3C//DTD SVG 1.1//EN"
 "http://www.w3.org/Graphics/SVG/1.1/DTD/svg11.dtd">
<!-- Generated by graphviz version 2.26.3 (20100126.1600)
 -->
<!-- Title: webpage Pages: 1 -->
<svg width="2622pt" height="924pt"
 viewBox="0.00 0.00 2622.00 924.00" xmlns="http://www.w3.org/2000/svg" xmlns:xlink="http://www.w3.org/1999/xlink">
<g id="graph1" class="graph" transform="scale(1 1) rotate(0) translate(4 920)">
<title>webpage</title>
<polygon fill="white" stroke="white" points="-4,5 -4,-920 2619,-920 2619,5 -4,5"/>
<!-- body_fb5297ef868fa0cb9f752b0297ea2f9c -->
<g id="node1" class="node"><title>body_fb5297ef868fa0cb9f752b0297ea2f9c</title>
<ellipse fill="none" stroke="black" cx="554" cy="-846" rx="85.0596" ry="69.2965"/>
<text text-anchor="middle" x="554" y="-878.4" font-family="Times Roman,serif" font-size="14.00">1</text>
<text text-anchor="middle" x="554" y="-860.4" font-family="Times Roman,serif" font-size="14.00">body</text>
<text text-anchor="middle" x="554" y="-842.4" font-family="Times Roman,serif" font-size="14.00">E:0.47</text>
<text text-anchor="middle" x="554" y="-824.4" font-family="Times Roman,serif" font-size="14.00">P:0.26</text>
<text text-anchor="middle" x="554" y="-806.4" font-family="Times Roman,serif" font-size="14.00">S,L:[0.00,0.00]</text>
</g>
<!-- script_c12fab89243811a5f2e2f4cf939d37f5 -->
<g id="node2" class="node"><title>script_c12fab89243811a5f2e2f4cf939d37f5</title>
<ellipse fill="none" stroke="black" cx="85" cy="-652" rx="85.0596" ry="69.2965"/>
<text text-anchor="middle" x="85" y="-684.4" font-family="Times Roman,serif" font-size="14.00">13</text>
<text text-anchor="middle" x="85" y="-666.4" font-family="Times Roman,serif" font-size="14.00">script</text>
<text text-anchor="middle" x="85" y="-648.4" font-family="Times Roman,serif" font-size="14.00">E:0.37</text>
<text text-anchor="middle" x="85" y="-630.4" font-family="Times Roman,serif" font-size="14.00">P:0.21</text>
<text text-anchor="middle" x="85" y="-612.4" font-family="Times Roman,serif" font-size="14.00">S,L:[0.38,0.38]</text>
</g>
<!-- body_fb5297ef868fa0cb9f752b0297ea2f9c&#45;&gt;script_c12fab89243811a5f2e2f4cf939d37f5 -->
<g id="edge2" class="edge"><title>body_fb5297ef868fa0cb9f752b0297ea2f9c&#45;&gt;script_c12fab89243811a5f2e2f4cf939d37f5</title>
<path fill="none" stroke="black" d="M471.979,-827.002C393.91,-807.068 274.505,-771.687 179,-722 170.56,-717.609 162.067,-712.487 153.822,-707.047"/>
<polygon fill="black" stroke="black" points="155.572,-704.004 145.333,-701.281 151.638,-709.795 155.572,-704.004"/>
<text text-anchor="middle" x="274" y="-745.4" font-family="Times Roman,serif" font-size="14.00">0.00</text>
</g>
<!-- div_1c6dd692227a5c5a5361c4e4423dda6c -->
<g id="node4" class="node"><title>div_1c6dd692227a5c5a5361c4e4423dda6c</title>
<ellipse fill="none" stroke="black" cx="273" cy="-652" rx="85.0596" ry="69.2965"/>
<text text-anchor="middle" x="273" y="-684.4" font-family="Times Roman,serif" font-size="14.00">21</text>
<text text-anchor="middle" x="273" y="-666.4" font-family="Times Roman,serif" font-size="14.00">div</text>
<text text-anchor="middle" x="273" y="-648.4" font-family="Times Roman,serif" font-size="14.00">E:0.52</text>
<text text-anchor="middle" x="273" y="-630.4" font-family="Times Roman,serif" font-size="14.00">P:0.31</text>
<text text-anchor="middle" x="273" y="-612.4" font-family="Times Roman,serif" font-size="14.00">S,L:[0.38,0.38]</text>
</g>
<!-- body_fb5297ef868fa0cb9f752b0297ea2f9c&#45;&gt;div_1c6dd692227a5c5a5361c4e4423dda6c -->
<g id="edge4" class="edge"><title>body_fb5297ef868fa0cb9f752b0297ea2f9c&#45;&gt;div_1c6dd692227a5c5a5361c4e4423dda6c</title>
<path fill="none" stroke="black" d="M487.199,-802.97C451.259,-779.502 406.355,-749.671 367,-722 359.483,-716.714 351.692,-711.115 343.958,-705.477"/>
<polygon fill="black" stroke="black" points="345.74,-702.444 335.605,-699.357 341.603,-708.091 345.74,-702.444"/>
<text text-anchor="middle" x="434" y="-745.4" font-family="Times Roman,serif" font-size="14.00">5.24</text>
</g>
<!-- script_66c0744e52dfb9e475714321ec61db8b -->
<g id="node6" class="node"><title>script_66c0744e52dfb9e475714321ec61db8b</title>
<ellipse fill="none" stroke="black" cx="461" cy="-652" rx="85.0596" ry="69.2965"/>
<text text-anchor="middle" x="461" y="-684.4" font-family="Times Roman,serif" font-size="14.00">25</text>
<text text-anchor="middle" x="461" y="-666.4" font-family="Times Roman,serif" font-size="14.00">script</text>
<text text-anchor="middle" x="461" y="-648.4" font-family="Times Roman,serif" font-size="14.00">E:0.24</text>
<text text-anchor="middle" x="461" y="-630.4" font-family="Times Roman,serif" font-size="14.00">P:0.21</text>
<text text-anchor="middle" x="461" y="-612.4" font-family="Times Roman,serif" font-size="14.00">S,L:[0.38,0.38]</text>
</g>
<!-- body_fb5297ef868fa0cb9f752b0297ea2f9c&#45;&gt;script_66c0744e52dfb9e475714321ec61db8b -->
<g id="edge6" class="edge"><title>body_fb5297ef868fa0cb9f752b0297ea2f9c&#45;&gt;script_66c0744e52dfb9e475714321ec61db8b</title>
<path fill="none" stroke="black" d="M522.903,-781.131C514.449,-763.497 505.23,-744.265 496.55,-726.159"/>
<polygon fill="black" stroke="black" points="499.547,-724.312 492.068,-716.808 493.234,-727.338 499.547,-724.312"/>
<text text-anchor="middle" x="527" y="-745.4" font-family="Times Roman,serif" font-size="14.00">0.00</text>
</g>
<!-- div_5028d960a1c411b0376de60c6b431ddb -->
<g id="node18" class="node"><title>div_5028d960a1c411b0376de60c6b431ddb</title>
<ellipse fill="none" stroke="black" cx="649" cy="-652" rx="85.0596" ry="69.2965"/>
<text text-anchor="middle" x="649" y="-684.4" font-family="Times Roman,serif" font-size="14.00">46</text>
<text text-anchor="middle" x="649" y="-666.4" font-family="Times Roman,serif" font-size="14.00">div</text>
<text text-anchor="middle" x="649" y="-648.4" font-family="Times Roman,serif" font-size="14.00">E:0.52</text>
<text text-anchor="middle" x="649" y="-630.4" font-family="Times Roman,serif" font-size="14.00">P:0.43</text>
<text text-anchor="middle" x="649" y="-612.4" font-family="Times Roman,serif" font-size="14.00">S,L:[1.12,1.12]</text>
</g>
<!-- body_fb5297ef868fa0cb9f752b0297ea2f9c&#45;&gt;div_5028d960a1c411b0376de60c6b431ddb -->
<g id="edge18" class="edge"><title>body_fb5297ef868fa0cb9f752b0297ea2f9c&#45;&gt;div_5028d960a1c411b0376de60c6b431ddb</title>
<path fill="none" stroke="black" d="M585.634,-781.401C594.361,-763.579 603.895,-744.109 612.856,-725.809"/>
<polygon fill="black" stroke="black" points="616.088,-727.168 617.343,-716.648 609.801,-724.089 616.088,-727.168"/>
<text text-anchor="middle" x="621" y="-745.4" font-family="Times Roman,serif" font-size="14.00">5.24</text>
</g>
<!-- div_40af9b20b50f8afd12f086c6d57bbb4c -->
<g id="node60" class="node"><title>div_40af9b20b50f8afd12f086c6d57bbb4c</title>
<ellipse fill="none" stroke="black" cx="837" cy="-652" rx="85.0596" ry="69.2965"/>
<text text-anchor="middle" x="837" y="-684.4" font-family="Times Roman,serif" font-size="14.00">106</text>
<text text-anchor="middle" x="837" y="-666.4" font-family="Times Roman,serif" font-size="14.00">div</text>
<text text-anchor="middle" x="837" y="-648.4" font-family="Times Roman,serif" font-size="14.00">E:0.49</text>
<text text-anchor="middle" x="837" y="-630.4" font-family="Times Roman,serif" font-size="14.00">P:0.59</text>
<text text-anchor="middle" x="837" y="-612.4" font-family="Times Roman,serif" font-size="14.00">S,L:[1.12,1.12]</text>
</g>
<!-- body_fb5297ef868fa0cb9f752b0297ea2f9c&#45;&gt;div_40af9b20b50f8afd12f086c6d57bbb4c -->
<g id="edge60" class="edge"><title>body_fb5297ef868fa0cb9f752b0297ea2f9c&#45;&gt;div_40af9b20b50f8afd12f086c6d57bbb4c</title>
<path fill="none" stroke="black" d="M621.123,-803.341C657.535,-779.856 703.124,-749.892 743,-722 750.53,-716.733 758.329,-711.145 766.068,-705.515"/>
<polygon fill="black" stroke="black" points="768.421,-708.13 774.426,-699.401 764.288,-702.48 768.421,-708.13"/>
<text text-anchor="middle" x="729" y="-745.4" font-family="Times Roman,serif" font-size="14.00">4.86</text>
</g>
<!-- div_04d32883fd26eb5879eb216b0933c9d7 -->
<g id="node62" class="node"><title>div_04d32883fd26eb5879eb216b0933c9d7</title>
<ellipse fill="none" stroke="black" cx="1025" cy="-652" rx="85.0596" ry="69.2965"/>
<text text-anchor="middle" x="1025" y="-684.4" font-family="Times Roman,serif" font-size="14.00">879</text>
<text text-anchor="middle" x="1025" y="-666.4" font-family="Times Roman,serif" font-size="14.00">div</text>
<text text-anchor="middle" x="1025" y="-648.4" font-family="Times Roman,serif" font-size="14.00">E:0.21</text>
<text text-anchor="middle" x="1025" y="-630.4" font-family="Times Roman,serif" font-size="14.00">P:0.83</text>
<text text-anchor="middle" x="1025" y="-612.4" font-family="Times Roman,serif" font-size="14.00">S,L:[0.38,0.38]</text>
</g>
<!-- body_fb5297ef868fa0cb9f752b0297ea2f9c&#45;&gt;div_04d32883fd26eb5879eb216b0933c9d7 -->
<g id="edge62" class="edge"><title>body_fb5297ef868fa0cb9f752b0297ea2f9c&#45;&gt;div_04d32883fd26eb5879eb216b0933c9d7</title>
<path fill="none" stroke="black" d="M636.088,-827.17C714.57,-807.306 834.843,-771.929 931,-722 939.444,-717.616 947.939,-712.498 956.185,-707.06"/>
<polygon fill="black" stroke="black" points="958.368,-709.809 964.675,-701.296 954.436,-704.017 958.368,-709.809"/>
<text text-anchor="middle" x="909" y="-745.4" font-family="Times Roman,serif" font-size="14.00">1.65</text>
</g>
<!-- h2_130dd8fb8b07e5e3f13813d70118dcce -->
<g id="node8" class="node"><title>h2_130dd8fb8b07e5e3f13813d70118dcce</title>
<ellipse fill="none" stroke="black" cx="85" cy="-458" rx="85.0596" ry="69.2965"/>
<text text-anchor="middle" x="85" y="-490.4" font-family="Times Roman,serif" font-size="14.00">26</text>
<text text-anchor="middle" x="85" y="-472.4" font-family="Times Roman,serif" font-size="14.00">h2</text>
<text text-anchor="middle" x="85" y="-454.4" font-family="Times Roman,serif" font-size="14.00">E:0.23</text>
<text text-anchor="middle" x="85" y="-436.4" font-family="Times Roman,serif" font-size="14.00">P:0.01</text>
<text text-anchor="middle" x="85" y="-418.4" font-family="Times Roman,serif" font-size="14.00">S,L:[0.75,0.75]</text>
</g>
<!-- script_66c0744e52dfb9e475714321ec61db8b&#45;&gt;h2_130dd8fb8b07e5e3f13813d70118dcce -->
<g id="edge8" class="edge"><title>script_66c0744e52dfb9e475714321ec61db8b&#45;&gt;h2_130dd8fb8b07e5e3f13813d70118dcce</title>
<path fill="none" stroke="black" d="M401.121,-602.512C390.196,-594.932 378.578,-587.735 367,-582 289.099,-543.414 256.901,-566.586 179,-528 170.316,-523.699 161.611,-518.575 153.191,-513.084"/>
<polygon fill="black" stroke="black" points="155.128,-510.17 144.879,-507.488 151.219,-515.976 155.128,-510.17"/>
<text text-anchor="middle" x="334" y="-551.4" font-family="Times Roman,serif" font-size="14.00">1.45</text>
</g>
<!-- p_95be155cf889349e020786c8366e3159 -->
<g id="node10" class="node"><title>p_95be155cf889349e020786c8366e3159</title>
<ellipse fill="none" stroke="black" cx="273" cy="-458" rx="85.0596" ry="69.2965"/>
<text text-anchor="middle" x="273" y="-490.4" font-family="Times Roman,serif" font-size="14.00">28</text>
<text text-anchor="middle" x="273" y="-472.4" font-family="Times Roman,serif" font-size="14.00">p</text>
<text text-anchor="middle" x="273" y="-454.4" font-family="Times Roman,serif" font-size="14.00">E:0.34</text>
<text text-anchor="middle" x="273" y="-436.4" font-family="Times Roman,serif" font-size="14.00">P:0.02</text>
<text text-anchor="middle" x="273" y="-418.4" font-family="Times Roman,serif" font-size="14.00">S,L:[0.75,0.75]</text>
</g>
<!-- script_66c0744e52dfb9e475714321ec61db8b&#45;&gt;p_95be155cf889349e020786c8366e3159 -->
<g id="edge10" class="edge"><title>script_66c0744e52dfb9e475714321ec61db8b&#45;&gt;p_95be155cf889349e020786c8366e3159</title>
<path fill="none" stroke="black" d="M408.131,-597.444C384.704,-573.269 357.032,-544.714 332.849,-519.759"/>
<polygon fill="black" stroke="black" points="335.27,-517.228 325.797,-512.482 330.243,-522.099 335.27,-517.228"/>
<text text-anchor="middle" x="389" y="-551.4" font-family="Times Roman,serif" font-size="14.00">2.72</text>
</g>
<!-- ul_7a0e9437049d2d80ca1f5f6d34b7ab6b -->
<g id="node12" class="node"><title>ul_7a0e9437049d2d80ca1f5f6d34b7ab6b</title>
<ellipse fill="none" stroke="black" cx="461" cy="-458" rx="85.0596" ry="69.2965"/>
<text text-anchor="middle" x="461" y="-490.4" font-family="Times Roman,serif" font-size="14.00">33</text>
<text text-anchor="middle" x="461" y="-472.4" font-family="Times Roman,serif" font-size="14.00">ul</text>
<text text-anchor="middle" x="461" y="-454.4" font-family="Times Roman,serif" font-size="14.00">E:0.08</text>
<text text-anchor="middle" x="461" y="-436.4" font-family="Times Roman,serif" font-size="14.00">P:0.03</text>
<text text-anchor="middle" x="461" y="-418.4" font-family="Times Roman,serif" font-size="14.00">S,L:[0.75,0.75]</text>
</g>
<!-- script_66c0744e52dfb9e475714321ec61db8b&#45;&gt;ul_7a0e9437049d2d80ca1f5f6d34b7ab6b -->
<g id="edge12" class="edge"><title>script_66c0744e52dfb9e475714321ec61db8b&#45;&gt;ul_7a0e9437049d2d80ca1f5f6d34b7ab6b</title>
<path fill="none" stroke="black" d="M461,-582.236C461,-567.849 461,-552.593 461,-537.879"/>
<polygon fill="black" stroke="black" points="464.5,-537.797 461,-527.797 457.5,-537.797 464.5,-537.797"/>
<text text-anchor="middle" x="477" y="-551.4" font-family="Times Roman,serif" font-size="14.00">0.76</text>
</g>
<!-- li_7c1bfd65fc61188c87f6bacb6b619fc6 -->
<g id="node14" class="node"><title>li_7c1bfd65fc61188c87f6bacb6b619fc6</title>
<ellipse fill="none" stroke="black" cx="273" cy="-264" rx="85.0596" ry="69.2965"/>
<text text-anchor="middle" x="273" y="-296.4" font-family="Times Roman,serif" font-size="14.00">34</text>
<text text-anchor="middle" x="273" y="-278.4" font-family="Times Roman,serif" font-size="14.00">li</text>
<text text-anchor="middle" x="273" y="-260.4" font-family="Times Roman,serif" font-size="14.00">E:0.29</text>
<text text-anchor="middle" x="273" y="-242.4" font-family="Times Roman,serif" font-size="14.00">P:0.13</text>
<text text-anchor="middle" x="273" y="-224.4" font-family="Times Roman,serif" font-size="14.00">S,L:[1.12,1.12]</text>
</g>
<!-- ul_7a0e9437049d2d80ca1f5f6d34b7ab6b&#45;&gt;li_7c1bfd65fc61188c87f6bacb6b619fc6 -->
<g id="edge14" class="edge"><title>ul_7a0e9437049d2d80ca1f5f6d34b7ab6b&#45;&gt;li_7c1bfd65fc61188c87f6bacb6b619fc6</title>
<path fill="none" stroke="black" d="M408.131,-403.444C384.704,-379.269 357.032,-350.714 332.849,-325.759"/>
<polygon fill="black" stroke="black" points="335.27,-323.228 325.797,-318.482 330.243,-328.099 335.27,-323.228"/>
<text text-anchor="middle" x="389" y="-357.4" font-family="Times Roman,serif" font-size="14.00">1.47</text>
</g>
<!-- li_6e60403a93f7b58f3121bc91faafb3ea -->
<g id="node16" class="node"><title>li_6e60403a93f7b58f3121bc91faafb3ea</title>
<ellipse fill="none" stroke="black" cx="461" cy="-264" rx="85.0596" ry="69.2965"/>
<text text-anchor="middle" x="461" y="-296.4" font-family="Times Roman,serif" font-size="14.00">37</text>
<text text-anchor="middle" x="461" y="-278.4" font-family="Times Roman,serif" font-size="14.00">li</text>
<text text-anchor="middle" x="461" y="-260.4" font-family="Times Roman,serif" font-size="14.00">E:0.30</text>
<text text-anchor="middle" x="461" y="-242.4" font-family="Times Roman,serif" font-size="14.00">P:0.13</text>
<text text-anchor="middle" x="461" y="-224.4" font-family="Times Roman,serif" font-size="14.00">S,L:[1.12,1.12]</text>
</g>
<!-- ul_7a0e9437049d2d80ca1f5f6d34b7ab6b&#45;&gt;li_6e60403a93f7b58f3121bc91faafb3ea -->
<g id="edge16" class="edge"><title>ul_7a0e9437049d2d80ca1f5f6d34b7ab6b&#45;&gt;li_6e60403a93f7b58f3121bc91faafb3ea</title>
<path fill="none" stroke="black" d="M461,-388.236C461,-373.849 461,-358.593 461,-343.879"/>
<polygon fill="black" stroke="black" points="464.5,-343.797 461,-333.797 457.5,-343.797 464.5,-343.797"/>
<text text-anchor="middle" x="477" y="-357.4" font-family="Times Roman,serif" font-size="14.00">1.52</text>
</g>
<!-- div_eae5231d49a7966b188aa20d78355f9f -->
<g id="node20" class="node"><title>div_eae5231d49a7966b188aa20d78355f9f</title>
<ellipse fill="none" stroke="black" cx="649" cy="-458" rx="85.0596" ry="69.2965"/>
<text text-anchor="middle" x="649" y="-490.4" font-family="Times Roman,serif" font-size="14.00">47</text>
<text text-anchor="middle" x="649" y="-472.4" font-family="Times Roman,serif" font-size="14.00">div</text>
<text text-anchor="middle" x="649" y="-454.4" font-family="Times Roman,serif" font-size="14.00">E:0.19</text>
<text text-anchor="middle" x="649" y="-436.4" font-family="Times Roman,serif" font-size="14.00">P:0.20</text>
<text text-anchor="middle" x="649" y="-418.4" font-family="Times Roman,serif" font-size="14.00">S,L:[1.50,1.50]</text>
</g>
<!-- div_5028d960a1c411b0376de60c6b431ddb&#45;&gt;div_eae5231d49a7966b188aa20d78355f9f -->
<g id="edge20" class="edge"><title>div_5028d960a1c411b0376de60c6b431ddb&#45;&gt;div_eae5231d49a7966b188aa20d78355f9f</title>
<path fill="none" stroke="black" d="M649,-582.236C649,-567.849 649,-552.593 649,-537.879"/>
<polygon fill="black" stroke="black" points="652.5,-537.797 649,-527.797 645.5,-537.797 652.5,-537.797"/>
<text text-anchor="middle" x="665" y="-551.4" font-family="Times Roman,serif" font-size="14.00">1.54</text>
</g>
<!-- div_332885c4c2f4d166e52ebcb920ea963e -->
<g id="node22" class="node"><title>div_332885c4c2f4d166e52ebcb920ea963e</title>
<ellipse fill="none" stroke="black" cx="837" cy="-458" rx="85.0596" ry="69.2965"/>
<text text-anchor="middle" x="837" y="-490.4" font-family="Times Roman,serif" font-size="14.00">51</text>
<text text-anchor="middle" x="837" y="-472.4" font-family="Times Roman,serif" font-size="14.00">div</text>
<text text-anchor="middle" x="837" y="-454.4" font-family="Times Roman,serif" font-size="14.00">E:0.23</text>
<text text-anchor="middle" x="837" y="-436.4" font-family="Times Roman,serif" font-size="14.00">P:0.20</text>
<text text-anchor="middle" x="837" y="-418.4" font-family="Times Roman,serif" font-size="14.00">S,L:[1.50,1.50]</text>
</g>
<!-- div_5028d960a1c411b0376de60c6b431ddb&#45;&gt;div_332885c4c2f4d166e52ebcb920ea963e -->
<g id="edge22" class="edge"><title>div_5028d960a1c411b0376de60c6b431ddb&#45;&gt;div_332885c4c2f4d166e52ebcb920ea963e</title>
<path fill="none" stroke="black" d="M701.869,-597.444C725.296,-573.269 752.968,-544.714 777.151,-519.759"/>
<polygon fill="black" stroke="black" points="779.757,-522.099 784.203,-512.482 774.73,-517.228 779.757,-522.099"/>
<text text-anchor="middle" x="765" y="-551.4" font-family="Times Roman,serif" font-size="14.00">2.32</text>
</g>
<!-- div_1f1d6217e494f2a5456dfd26fb3d00f1 -->
<g id="node32" class="node"><title>div_1f1d6217e494f2a5456dfd26fb3d00f1</title>
<ellipse fill="none" stroke="black" cx="1025" cy="-458" rx="85.0596" ry="69.2965"/>
<text text-anchor="middle" x="1025" y="-490.4" font-family="Times Roman,serif" font-size="14.00">61</text>
<text text-anchor="middle" x="1025" y="-472.4" font-family="Times Roman,serif" font-size="14.00">div</text>
<text text-anchor="middle" x="1025" y="-454.4" font-family="Times Roman,serif" font-size="14.00">E:0.23</text>
<text text-anchor="middle" x="1025" y="-436.4" font-family="Times Roman,serif" font-size="14.00">P:0.20</text>
<text text-anchor="middle" x="1025" y="-418.4" font-family="Times Roman,serif" font-size="14.00">S,L:[1.50,1.50]</text>
</g>
<!-- div_5028d960a1c411b0376de60c6b431ddb&#45;&gt;div_1f1d6217e494f2a5456dfd26fb3d00f1 -->
<g id="edge32" class="edge"><title>div_5028d960a1c411b0376de60c6b431ddb&#45;&gt;div_1f1d6217e494f2a5456dfd26fb3d00f1</title>
<path fill="none" stroke="black" d="M708.879,-602.512C719.804,-594.932 731.422,-587.735 743,-582 820.901,-543.414 853.099,-566.586 931,-528 939.684,-523.699 948.389,-518.575 956.809,-513.084"/>
<polygon fill="black" stroke="black" points="958.781,-515.976 965.121,-507.488 954.872,-510.17 958.781,-515.976"/>
<text text-anchor="middle" x="898" y="-551.4" font-family="Times Roman,serif" font-size="14.00">2.32</text>
</g>
<!-- div_9a1cfbc14a2f0c7a38fdadc857cf62de -->
<g id="node34" class="node"><title>div_9a1cfbc14a2f0c7a38fdadc857cf62de</title>
<ellipse fill="none" stroke="black" cx="1556" cy="-458" rx="85.0596" ry="69.2965"/>
<text text-anchor="middle" x="1556" y="-490.4" font-family="Times Roman,serif" font-size="14.00">62</text>
<text text-anchor="middle" x="1556" y="-472.4" font-family="Times Roman,serif" font-size="14.00">div</text>
<text text-anchor="middle" x="1556" y="-454.4" font-family="Times Roman,serif" font-size="14.00">E:0.32</text>
<text text-anchor="middle" x="1556" y="-436.4" font-family="Times Roman,serif" font-size="14.00">P:0.20</text>
<text text-anchor="middle" x="1556" y="-418.4" font-family="Times Roman,serif" font-size="14.00">S,L:[1.50,1.50]</text>
</g>
<!-- div_5028d960a1c411b0376de60c6b431ddb&#45;&gt;div_9a1cfbc14a2f0c7a38fdadc857cf62de -->
<g id="edge34" class="edge"><title>div_5028d960a1c411b0376de60c6b431ddb&#45;&gt;div_9a1cfbc14a2f0c7a38fdadc857cf62de</title>
<path fill="none" stroke="black" d="M707.316,-601.26C718.549,-593.673 730.675,-586.799 743,-582 815.86,-553.632 840.508,-574.412 918,-564 1112.62,-537.849 1339.09,-497.958 1463.06,-475.305"/>
<polygon fill="black" stroke="black" points="1463.69,-478.746 1472.9,-473.503 1462.43,-471.861 1463.69,-478.746"/>
<text text-anchor="middle" x="1057" y="-551.4" font-family="Times Roman,serif" font-size="14.00">3.19</text>
</g>
<!-- h2_a8121fb2b73ac0896ff591baf17a1450 -->
<g id="node24" class="node"><title>h2_a8121fb2b73ac0896ff591baf17a1450</title>
<ellipse fill="none" stroke="black" cx="649" cy="-264" rx="85.0596" ry="69.2965"/>
<text text-anchor="middle" x="649" y="-296.4" font-family="Times Roman,serif" font-size="14.00">52</text>
<text text-anchor="middle" x="649" y="-278.4" font-family="Times Roman,serif" font-size="14.00">h2</text>
<text text-anchor="middle" x="649" y="-260.4" font-family="Times Roman,serif" font-size="14.00">E:0.23</text>
<text text-anchor="middle" x="649" y="-242.4" font-family="Times Roman,serif" font-size="14.00">P:0.01</text>
<text text-anchor="middle" x="649" y="-224.4" font-family="Times Roman,serif" font-size="14.00">S,L:[1.88,1.88]</text>
</g>
<!-- div_332885c4c2f4d166e52ebcb920ea963e&#45;&gt;h2_a8121fb2b73ac0896ff591baf17a1450 -->
<g id="edge24" class="edge"><title>div_332885c4c2f4d166e52ebcb920ea963e&#45;&gt;h2_a8121fb2b73ac0896ff591baf17a1450</title>
<path fill="none" stroke="black" d="M784.131,-403.444C760.704,-379.269 733.032,-350.714 708.849,-325.759"/>
<polygon fill="black" stroke="black" points="711.27,-323.228 701.797,-318.482 706.243,-328.099 711.27,-323.228"/>
<text text-anchor="middle" x="765" y="-357.4" font-family="Times Roman,serif" font-size="14.00">1.45</text>
</g>
<!-- ul_68a589c7a7d3169f93df986e60c67ccc -->
<g id="node26" class="node"><title>ul_68a589c7a7d3169f93df986e60c67ccc</title>
<ellipse fill="none" stroke="black" cx="837" cy="-264" rx="85.0596" ry="69.2965"/>
<text text-anchor="middle" x="837" y="-296.4" font-family="Times Roman,serif" font-size="14.00">54</text>
<text text-anchor="middle" x="837" y="-278.4" font-family="Times Roman,serif" font-size="14.00">ul</text>
<text text-anchor="middle" x="837" y="-260.4" font-family="Times Roman,serif" font-size="14.00">E:0.08</text>
<text text-anchor="middle" x="837" y="-242.4" font-family="Times Roman,serif" font-size="14.00">P:0.03</text>
<text text-anchor="middle" x="837" y="-224.4" font-family="Times Roman,serif" font-size="14.00">S,L:[1.88,1.88]</text>
</g>
<!-- div_332885c4c2f4d166e52ebcb920ea963e&#45;&gt;ul_68a589c7a7d3169f93df986e60c67ccc -->
<g id="edge26" class="edge"><title>div_332885c4c2f4d166e52ebcb920ea963e&#45;&gt;ul_68a589c7a7d3169f93df986e60c67ccc</title>
<path fill="none" stroke="black" d="M837,-388.236C837,-373.849 837,-358.593 837,-343.879"/>
<polygon fill="black" stroke="black" points="840.5,-343.797 837,-333.797 833.5,-343.797 840.5,-343.797"/>
<text text-anchor="middle" x="853" y="-357.4" font-family="Times Roman,serif" font-size="14.00">0.76</text>
</g>
<!-- li_71b481aca41fb7b68fe2c6e58df0936e -->
<g id="node28" class="node"><title>li_71b481aca41fb7b68fe2c6e58df0936e</title>
<ellipse fill="none" stroke="black" cx="649" cy="-70" rx="85.0596" ry="69.2965"/>
<text text-anchor="middle" x="649" y="-102.4" font-family="Times Roman,serif" font-size="14.00">55</text>
<text text-anchor="middle" x="649" y="-84.4" font-family="Times Roman,serif" font-size="14.00">li</text>
<text text-anchor="middle" x="649" y="-66.4" font-family="Times Roman,serif" font-size="14.00">E:0.33</text>
<text text-anchor="middle" x="649" y="-48.4" font-family="Times Roman,serif" font-size="14.00">P:0.14</text>
<text text-anchor="middle" x="649" y="-30.4" font-family="Times Roman,serif" font-size="14.00">S,L:[2.25,2.25]</text>
</g>
<!-- ul_68a589c7a7d3169f93df986e60c67ccc&#45;&gt;li_71b481aca41fb7b68fe2c6e58df0936e -->
<g id="edge28" class="edge"><title>ul_68a589c7a7d3169f93df986e60c67ccc&#45;&gt;li_71b481aca41fb7b68fe2c6e58df0936e</title>
<path fill="none" stroke="black" d="M784.131,-209.444C760.704,-185.269 733.032,-156.714 708.849,-131.759"/>
<polygon fill="black" stroke="black" points="711.27,-129.228 701.797,-124.482 706.243,-134.099 711.27,-129.228"/>
<text text-anchor="middle" x="765" y="-163.4" font-family="Times Roman,serif" font-size="14.00">1.63</text>
</g>
<!-- li_8fa63c4628a1b28464ec0fad15faf89e -->
<g id="node30" class="node"><title>li_8fa63c4628a1b28464ec0fad15faf89e</title>
<ellipse fill="none" stroke="black" cx="837" cy="-70" rx="85.0596" ry="69.2965"/>
<text text-anchor="middle" x="837" y="-102.4" font-family="Times Roman,serif" font-size="14.00">58</text>
<text text-anchor="middle" x="837" y="-84.4" font-family="Times Roman,serif" font-size="14.00">li</text>
<text text-anchor="middle" x="837" y="-66.4" font-family="Times Roman,serif" font-size="14.00">E:0.33</text>
<text text-anchor="middle" x="837" y="-48.4" font-family="Times Roman,serif" font-size="14.00">P:0.14</text>
<text text-anchor="middle" x="837" y="-30.4" font-family="Times Roman,serif" font-size="14.00">S,L:[2.25,2.25]</text>
</g>
<!-- ul_68a589c7a7d3169f93df986e60c67ccc&#45;&gt;li_8fa63c4628a1b28464ec0fad15faf89e -->
<g id="edge30" class="edge"><title>ul_68a589c7a7d3169f93df986e60c67ccc&#45;&gt;li_8fa63c4628a1b28464ec0fad15faf89e</title>
<path fill="none" stroke="black" d="M837,-194.236C837,-179.849 837,-164.593 837,-149.879"/>
<polygon fill="black" stroke="black" points="840.5,-149.797 837,-139.797 833.5,-149.797 840.5,-149.797"/>
<text text-anchor="middle" x="853" y="-163.4" font-family="Times Roman,serif" font-size="14.00">1.63</text>
</g>
<!-- h2_3091772360ca76ca8c5f30d4667769e0 -->
<g id="node36" class="node"><title>h2_3091772360ca76ca8c5f30d4667769e0</title>
<ellipse fill="none" stroke="black" cx="1495" cy="-264" rx="85.0596" ry="69.2965"/>
<text text-anchor="middle" x="1495" y="-296.4" font-family="Times Roman,serif" font-size="14.00">63</text>
<text text-anchor="middle" x="1495" y="-278.4" font-family="Times Roman,serif" font-size="14.00">h2</text>
<text text-anchor="middle" x="1495" y="-260.4" font-family="Times Roman,serif" font-size="14.00">E:0.23</text>
<text text-anchor="middle" x="1495" y="-242.4" font-family="Times Roman,serif" font-size="14.00">P:0.01</text>
<text text-anchor="middle" x="1495" y="-224.4" font-family="Times Roman,serif" font-size="14.00">S,L:[1.88,1.88]</text>
</g>
<!-- div_9a1cfbc14a2f0c7a38fdadc857cf62de&#45;&gt;h2_3091772360ca76ca8c5f30d4667769e0 -->
<g id="edge36" class="edge"><title>div_9a1cfbc14a2f0c7a38fdadc857cf62de&#45;&gt;h2_3091772360ca76ca8c5f30d4667769e0</title>
<path fill="none" stroke="black" d="M1534.75,-390.421C1529.77,-374.573 1524.42,-357.568 1519.32,-341.331"/>
<polygon fill="black" stroke="black" points="1522.51,-339.827 1516.17,-331.338 1515.83,-341.927 1522.51,-339.827"/>
<text text-anchor="middle" x="1544" y="-357.4" font-family="Times Roman,serif" font-size="14.00">1.45</text>
</g>
<!-- ul_3e052009a16f91ad24e4ab1a8c48dc35 -->
<g id="node38" class="node"><title>ul_3e052009a16f91ad24e4ab1a8c48dc35</title>
<ellipse fill="none" stroke="black" cx="1683" cy="-264" rx="85.0596" ry="69.2965"/>
<text text-anchor="middle" x="1683" y="-296.4" font-family="Times Roman,serif" font-size="14.00">65</text>
<text text-anchor="middle" x="1683" y="-278.4" font-family="Times Roman,serif" font-size="14.00">ul</text>
<text text-anchor="middle" x="1683" y="-260.4" font-family="Times Roman,serif" font-size="14.00">E:0.08</text>
<text text-anchor="middle" x="1683" y="-242.4" font-family="Times Roman,serif" font-size="14.00">P:0.03</text>
<text text-anchor="middle" x="1683" y="-224.4" font-family="Times Roman,serif" font-size="14.00">S,L:[1.88,1.88]</text>
</g>
<!-- div_9a1cfbc14a2f0c7a38fdadc857cf62de&#45;&gt;ul_3e052009a16f91ad24e4ab1a8c48dc35 -->
<g id="edge38" class="edge"><title>div_9a1cfbc14a2f0c7a38fdadc857cf62de&#45;&gt;ul_3e052009a16f91ad24e4ab1a8c48dc35</title>
<path fill="none" stroke="black" d="M1596.18,-396.617C1609.28,-376.616 1623.91,-354.269 1637.37,-333.704"/>
<polygon fill="black" stroke="black" points="1640.31,-335.6 1642.86,-325.316 1634.45,-331.766 1640.31,-335.6"/>
<text text-anchor="middle" x="1640" y="-357.4" font-family="Times Roman,serif" font-size="14.00">0.76</text>
</g>
<!-- form_ddd08aa1c13b14db3bbefbfb0cb6e8ec -->
<g id="node58" class="node"><title>form_ddd08aa1c13b14db3bbefbfb0cb6e8ec</title>
<ellipse fill="none" stroke="black" cx="1871" cy="-264" rx="85.0596" ry="69.2965"/>
<text text-anchor="middle" x="1871" y="-296.4" font-family="Times Roman,serif" font-size="14.00">94</text>
<text text-anchor="middle" x="1871" y="-278.4" font-family="Times Roman,serif" font-size="14.00">form</text>
<text text-anchor="middle" x="1871" y="-260.4" font-family="Times Roman,serif" font-size="14.00">E:0.52</text>
<text text-anchor="middle" x="1871" y="-242.4" font-family="Times Roman,serif" font-size="14.00">P:0.00</text>
<text text-anchor="middle" x="1871" y="-224.4" font-family="Times Roman,serif" font-size="14.00">S,L:[2.25,2.25]</text>
</g>
<!-- div_9a1cfbc14a2f0c7a38fdadc857cf62de&#45;&gt;form_ddd08aa1c13b14db3bbefbfb0cb6e8ec -->
<g id="edge58" class="edge"><title>div_9a1cfbc14a2f0c7a38fdadc857cf62de&#45;&gt;form_ddd08aa1c13b14db3bbefbfb0cb6e8ec</title>
<path fill="none" stroke="black" d="M1627.79,-420.756C1671.7,-397.233 1728.56,-365.437 1777,-334 1784.85,-328.903 1792.92,-323.376 1800.87,-317.739"/>
<polygon fill="black" stroke="black" points="1803.01,-320.51 1809.1,-311.839 1798.93,-314.821 1803.01,-320.51"/>
<text text-anchor="middle" x="1763" y="-357.4" font-family="Times Roman,serif" font-size="14.00">3.27</text>
</g>
<!-- li_0e9da5a6723a672e5abedeab1d2c12eb -->
<g id="node40" class="node"><title>li_0e9da5a6723a672e5abedeab1d2c12eb</title>
<ellipse fill="none" stroke="black" cx="1025" cy="-70" rx="85.0596" ry="69.2965"/>
<text text-anchor="middle" x="1025" y="-102.4" font-family="Times Roman,serif" font-size="14.00">66</text>
<text text-anchor="middle" x="1025" y="-84.4" font-family="Times Roman,serif" font-size="14.00">li</text>
<text text-anchor="middle" x="1025" y="-66.4" font-family="Times Roman,serif" font-size="14.00">E:0.33</text>
<text text-anchor="middle" x="1025" y="-48.4" font-family="Times Roman,serif" font-size="14.00">P:0.14</text>
<text text-anchor="middle" x="1025" y="-30.4" font-family="Times Roman,serif" font-size="14.00">S,L:[2.25,2.25]</text>
</g>
<!-- ul_3e052009a16f91ad24e4ab1a8c48dc35&#45;&gt;li_0e9da5a6723a672e5abedeab1d2c12eb -->
<g id="edge40" class="edge"><title>ul_3e052009a16f91ad24e4ab1a8c48dc35&#45;&gt;li_0e9da5a6723a672e5abedeab1d2c12eb</title>
<path fill="none" stroke="black" d="M1625.08,-213.071C1613.76,-205.453 1601.5,-198.616 1589,-194 1533.21,-173.402 1381.03,-183.203 1322,-176 1231.04,-164.902 1203.12,-176.34 1119,-140 1109.96,-136.096 1100.99,-131.168 1092.37,-125.743"/>
<polygon fill="black" stroke="black" points="1094.16,-122.733 1083.88,-120.171 1090.32,-128.585 1094.16,-122.733"/>
<text text-anchor="middle" x="1338" y="-163.4" font-family="Times Roman,serif" font-size="14.00">1.63</text>
</g>
<!-- li_94ea8ef314f3858e49ef279d3fafd1ee -->
<g id="node42" class="node"><title>li_94ea8ef314f3858e49ef279d3fafd1ee</title>
<ellipse fill="none" stroke="black" cx="1213" cy="-70" rx="85.0596" ry="69.2965"/>
<text text-anchor="middle" x="1213" y="-102.4" font-family="Times Roman,serif" font-size="14.00">69</text>
<text text-anchor="middle" x="1213" y="-84.4" font-family="Times Roman,serif" font-size="14.00">li</text>
<text text-anchor="middle" x="1213" y="-66.4" font-family="Times Roman,serif" font-size="14.00">E:0.33</text>
<text text-anchor="middle" x="1213" y="-48.4" font-family="Times Roman,serif" font-size="14.00">P:0.14</text>
<text text-anchor="middle" x="1213" y="-30.4" font-family="Times Roman,serif" font-size="14.00">S,L:[2.25,2.25]</text>
</g>
<!-- ul_3e052009a16f91ad24e4ab1a8c48dc35&#45;&gt;li_94ea8ef314f3858e49ef279d3fafd1ee -->
<g id="edge42" class="edge"><title>ul_3e052009a16f91ad24e4ab1a8c48dc35&#45;&gt;li_94ea8ef314f3858e49ef279d3fafd1ee</title>
<path fill="none" stroke="black" d="M1624.1,-213.873C1612.97,-206.27 1601.04,-199.231 1589,-194 1547.98,-176.175 1533.94,-184.316 1490,-176 1408.55,-160.586 1382.78,-173.585 1307,-140 1298.07,-136.043 1289.19,-131.109 1280.64,-125.703"/>
<polygon fill="black" stroke="black" points="1282.5,-122.735 1272.22,-120.159 1278.65,-128.582 1282.5,-122.735"/>
<text text-anchor="middle" x="1506" y="-163.4" font-family="Times Roman,serif" font-size="14.00">1.63</text>
</g>
<!-- li_f35a91a9918fcd455f641ed50a78225e -->
<g id="node44" class="node"><title>li_f35a91a9918fcd455f641ed50a78225e</title>
<ellipse fill="none" stroke="black" cx="1401" cy="-70" rx="85.0596" ry="69.2965"/>
<text text-anchor="middle" x="1401" y="-102.4" font-family="Times Roman,serif" font-size="14.00">72</text>
<text text-anchor="middle" x="1401" y="-84.4" font-family="Times Roman,serif" font-size="14.00">li</text>
<text text-anchor="middle" x="1401" y="-66.4" font-family="Times Roman,serif" font-size="14.00">E:0.33</text>
<text text-anchor="middle" x="1401" y="-48.4" font-family="Times Roman,serif" font-size="14.00">P:0.14</text>
<text text-anchor="middle" x="1401" y="-30.4" font-family="Times Roman,serif" font-size="14.00">S,L:[2.25,2.25]</text>
</g>
<!-- ul_3e052009a16f91ad24e4ab1a8c48dc35&#45;&gt;li_f35a91a9918fcd455f641ed50a78225e -->
<g id="edge44" class="edge"><title>ul_3e052009a16f91ad24e4ab1a8c48dc35&#45;&gt;li_f35a91a9918fcd455f641ed50a78225e</title>
<path fill="none" stroke="black" d="M1621.04,-216.253C1610.5,-208.596 1599.55,-200.922 1589,-194 1548.72,-167.565 1535.28,-166.435 1495,-140 1487.17,-134.863 1479.12,-129.311 1471.18,-123.659"/>
<polygon fill="black" stroke="black" points="1473.12,-120.744 1462.96,-117.747 1469.03,-126.427 1473.12,-120.744"/>
<text text-anchor="middle" x="1575" y="-163.4" font-family="Times Roman,serif" font-size="14.00">1.63</text>
</g>
<!-- li_5837144e359b726584736281b919c4de -->
<g id="node46" class="node"><title>li_5837144e359b726584736281b919c4de</title>
<ellipse fill="none" stroke="black" cx="1589" cy="-70" rx="85.0596" ry="69.2965"/>
<text text-anchor="middle" x="1589" y="-102.4" font-family="Times Roman,serif" font-size="14.00">75</text>
<text text-anchor="middle" x="1589" y="-84.4" font-family="Times Roman,serif" font-size="14.00">li</text>
<text text-anchor="middle" x="1589" y="-66.4" font-family="Times Roman,serif" font-size="14.00">E:0.33</text>
<text text-anchor="middle" x="1589" y="-48.4" font-family="Times Roman,serif" font-size="14.00">P:0.24</text>
<text text-anchor="middle" x="1589" y="-30.4" font-family="Times Roman,serif" font-size="14.00">S,L:[2.25,2.25]</text>
</g>
<!-- ul_3e052009a16f91ad24e4ab1a8c48dc35&#45;&gt;li_5837144e359b726584736281b919c4de -->
<g id="edge46" class="edge"><title>ul_3e052009a16f91ad24e4ab1a8c48dc35&#45;&gt;li_5837144e359b726584736281b919c4de</title>
<path fill="none" stroke="black" d="M1651.57,-199.131C1643.02,-181.497 1633.71,-162.265 1624.93,-144.159"/>
<polygon fill="black" stroke="black" points="1627.91,-142.281 1620.4,-134.808 1621.61,-145.333 1627.91,-142.281"/>
<text text-anchor="middle" x="1655" y="-163.4" font-family="Times Roman,serif" font-size="14.00">1.67</text>
</g>
<!-- li_f17f91eeb5281ff2fedea5366ff2f1ca -->
<g id="node48" class="node"><title>li_f17f91eeb5281ff2fedea5366ff2f1ca</title>
<ellipse fill="none" stroke="black" cx="1777" cy="-70" rx="85.0596" ry="69.2965"/>
<text text-anchor="middle" x="1777" y="-102.4" font-family="Times Roman,serif" font-size="14.00">78</text>
<text text-anchor="middle" x="1777" y="-84.4" font-family="Times Roman,serif" font-size="14.00">li</text>
<text text-anchor="middle" x="1777" y="-66.4" font-family="Times Roman,serif" font-size="14.00">E:0.33</text>
<text text-anchor="middle" x="1777" y="-48.4" font-family="Times Roman,serif" font-size="14.00">P:0.24</text>
<text text-anchor="middle" x="1777" y="-30.4" font-family="Times Roman,serif" font-size="14.00">S,L:[2.25,2.25]</text>
</g>
<!-- ul_3e052009a16f91ad24e4ab1a8c48dc35&#45;&gt;li_f17f91eeb5281ff2fedea5366ff2f1ca -->
<g id="edge48" class="edge"><title>ul_3e052009a16f91ad24e4ab1a8c48dc35&#45;&gt;li_f17f91eeb5281ff2fedea5366ff2f1ca</title>
<path fill="none" stroke="black" d="M1714.43,-199.131C1722.98,-181.497 1732.29,-162.265 1741.07,-144.159"/>
<polygon fill="black" stroke="black" points="1744.39,-145.333 1745.6,-134.808 1738.09,-142.281 1744.39,-145.333"/>
<text text-anchor="middle" x="1748" y="-163.4" font-family="Times Roman,serif" font-size="14.00">1.67</text>
</g>
<!-- li_7e04761a2f6a079eea0140928f5b6fd8 -->
<g id="node50" class="node"><title>li_7e04761a2f6a079eea0140928f5b6fd8</title>
<ellipse fill="none" stroke="black" cx="1965" cy="-70" rx="85.0596" ry="69.2965"/>
<text text-anchor="middle" x="1965" y="-102.4" font-family="Times Roman,serif" font-size="14.00">81</text>
<text text-anchor="middle" x="1965" y="-84.4" font-family="Times Roman,serif" font-size="14.00">li</text>
<text text-anchor="middle" x="1965" y="-66.4" font-family="Times Roman,serif" font-size="14.00">E:0.33</text>
<text text-anchor="middle" x="1965" y="-48.4" font-family="Times Roman,serif" font-size="14.00">P:0.24</text>
<text text-anchor="middle" x="1965" y="-30.4" font-family="Times Roman,serif" font-size="14.00">S,L:[2.25,2.25]</text>
</g>
<!-- ul_3e052009a16f91ad24e4ab1a8c48dc35&#45;&gt;li_7e04761a2f6a079eea0140928f5b6fd8 -->
<g id="edge50" class="edge"><title>ul_3e052009a16f91ad24e4ab1a8c48dc35&#45;&gt;li_7e04761a2f6a079eea0140928f5b6fd8</title>
<path fill="none" stroke="black" d="M1744.96,-216.253C1755.5,-208.596 1766.45,-200.922 1777,-194 1817.28,-167.565 1830.72,-166.435 1871,-140 1878.83,-134.863 1886.88,-129.311 1894.82,-123.659"/>
<polygon fill="black" stroke="black" points="1896.97,-126.427 1903.04,-117.747 1892.88,-120.744 1896.97,-126.427"/>
<text text-anchor="middle" x="1856" y="-163.4" font-family="Times Roman,serif" font-size="14.00">1.67</text>
</g>
<!-- li_05763edae37108c3d8899dbb7da9ebf2 -->
<g id="node52" class="node"><title>li_05763edae37108c3d8899dbb7da9ebf2</title>
<ellipse fill="none" stroke="black" cx="2153" cy="-70" rx="85.0596" ry="69.2965"/>
<text text-anchor="middle" x="2153" y="-102.4" font-family="Times Roman,serif" font-size="14.00">84</text>
<text text-anchor="middle" x="2153" y="-84.4" font-family="Times Roman,serif" font-size="14.00">li</text>
<text text-anchor="middle" x="2153" y="-66.4" font-family="Times Roman,serif" font-size="14.00">E:0.33</text>
<text text-anchor="middle" x="2153" y="-48.4" font-family="Times Roman,serif" font-size="14.00">P:0.24</text>
<text text-anchor="middle" x="2153" y="-30.4" font-family="Times Roman,serif" font-size="14.00">S,L:[2.25,2.25]</text>
</g>
<!-- ul_3e052009a16f91ad24e4ab1a8c48dc35&#45;&gt;li_05763edae37108c3d8899dbb7da9ebf2 -->
<g id="edge52" class="edge"><title>ul_3e052009a16f91ad24e4ab1a8c48dc35&#45;&gt;li_05763edae37108c3d8899dbb7da9ebf2</title>
<path fill="none" stroke="black" d="M1741.9,-213.873C1753.03,-206.27 1764.96,-199.231 1777,-194 1818.02,-176.175 1832.06,-184.316 1876,-176 1957.45,-160.586 1983.22,-173.585 2059,-140 2067.93,-136.043 2076.81,-131.109 2085.36,-125.703"/>
<polygon fill="black" stroke="black" points="2087.35,-128.582 2093.78,-120.159 2083.5,-122.735 2087.35,-128.582"/>
<text text-anchor="middle" x="2024" y="-163.4" font-family="Times Roman,serif" font-size="14.00">1.67</text>
</g>
<!-- li_6c3885921614e43213b8e1652152ac86 -->
<g id="node54" class="node"><title>li_6c3885921614e43213b8e1652152ac86</title>
<ellipse fill="none" stroke="black" cx="2341" cy="-70" rx="85.0596" ry="69.2965"/>
<text text-anchor="middle" x="2341" y="-102.4" font-family="Times Roman,serif" font-size="14.00">87</text>
<text text-anchor="middle" x="2341" y="-84.4" font-family="Times Roman,serif" font-size="14.00">li</text>
<text text-anchor="middle" x="2341" y="-66.4" font-family="Times Roman,serif" font-size="14.00">E:0.33</text>
<text text-anchor="middle" x="2341" y="-48.4" font-family="Times Roman,serif" font-size="14.00">P:0.24</text>
<text text-anchor="middle" x="2341" y="-30.4" font-family="Times Roman,serif" font-size="14.00">S,L:[2.25,2.25]</text>
</g>
<!-- ul_3e052009a16f91ad24e4ab1a8c48dc35&#45;&gt;li_6c3885921614e43213b8e1652152ac86 -->
<g id="edge54" class="edge"><title>ul_3e052009a16f91ad24e4ab1a8c48dc35&#45;&gt;li_6c3885921614e43213b8e1652152ac86</title>
<path fill="none" stroke="black" d="M1740.92,-213.071C1752.24,-205.453 1764.5,-198.616 1777,-194 1832.79,-173.402 1984.97,-183.203 2044,-176 2134.96,-164.902 2162.88,-176.34 2247,-140 2256.04,-136.096 2265.01,-131.168 2273.63,-125.743"/>
<polygon fill="black" stroke="black" points="2275.68,-128.585 2282.12,-120.171 2271.84,-122.733 2275.68,-128.585"/>
<text text-anchor="middle" x="2210" y="-163.4" font-family="Times Roman,serif" font-size="14.00">1.67</text>
</g>
<!-- li_cd14c2716ca8a94792023d1c283fa91d -->
<g id="node56" class="node"><title>li_cd14c2716ca8a94792023d1c283fa91d</title>
<ellipse fill="none" stroke="black" cx="2529" cy="-70" rx="85.0596" ry="69.2965"/>
<text text-anchor="middle" x="2529" y="-102.4" font-family="Times Roman,serif" font-size="14.00">90</text>
<text text-anchor="middle" x="2529" y="-84.4" font-family="Times Roman,serif" font-size="14.00">li</text>
<text text-anchor="middle" x="2529" y="-66.4" font-family="Times Roman,serif" font-size="14.00">E:0.33</text>
<text text-anchor="middle" x="2529" y="-48.4" font-family="Times Roman,serif" font-size="14.00">P:0.24</text>
<text text-anchor="middle" x="2529" y="-30.4" font-family="Times Roman,serif" font-size="14.00">S,L:[2.25,2.25]</text>
</g>
<!-- ul_3e052009a16f91ad24e4ab1a8c48dc35&#45;&gt;li_cd14c2716ca8a94792023d1c283fa91d -->
<g id="edge56" class="edge"><title>ul_3e052009a16f91ad24e4ab1a8c48dc35&#45;&gt;li_cd14c2716ca8a94792023d1c283fa91d</title>
<path fill="none" stroke="black" d="M1740.81,-212.784C1752.15,-205.195 1764.43,-198.443 1777,-194 1871.98,-160.412 2129.83,-186.737 2230,-176 2321.98,-166.141 2350.05,-176.616 2435,-140 2444.04,-136.104 2453.02,-131.181 2461.64,-125.758"/>
<polygon fill="black" stroke="black" points="2463.69,-128.6 2470.13,-120.188 2459.85,-122.748 2463.69,-128.6"/>
<text text-anchor="middle" x="2401" y="-163.4" font-family="Times Roman,serif" font-size="14.00">1.67</text>
</g>
</g>
</svg>
