<?xml version="1.0" encoding="UTF-8" standalone="no"?>
<!DOCTYPE svg PUBLIC "-//W3C//DTD SVG 1.1//EN"
 "http://www.w3.org/Graphics/SVG/1.1/DTD/svg11.dtd">
<!-- Generated by graphviz version 2.26.3 (20100126.1600)
 -->
<!-- Title: webpage Pages: 1 -->
<svg width="2058pt" height="924pt"
 viewBox="0.00 0.00 2058.00 924.00" xmlns="http://www.w3.org/2000/svg" xmlns:xlink="http://www.w3.org/1999/xlink">
<g id="graph1" class="graph" transform="scale(1 1) rotate(0) translate(4 920)">
<title>webpage</title>
<polygon fill="white" stroke="white" points="-4,5 -4,-920 2055,-920 2055,5 -4,5"/>
<!-- body_fb5297ef868fa0cb9f752b0297ea2f9c -->
<g id="node1" class="node"><title>body_fb5297ef868fa0cb9f752b0297ea2f9c</title>
<ellipse fill="none" stroke="black" cx="541" cy="-846" rx="85.0596" ry="69.2965"/>
<text text-anchor="middle" x="541" y="-878.4" font-family="Times Roman,serif" font-size="14.00">1</text>
<text text-anchor="middle" x="541" y="-860.4" font-family="Times Roman,serif" font-size="14.00">body</text>
<text text-anchor="middle" x="541" y="-842.4" font-family="Times Roman,serif" font-size="14.00">E:0.47</text>
<text text-anchor="middle" x="541" y="-824.4" font-family="Times Roman,serif" font-size="14.00">P:0.26</text>
<text text-anchor="middle" x="541" y="-806.4" font-family="Times Roman,serif" font-size="14.00">S,L:[0.00,0.00]</text>
</g>
<!-- div_1c6dd692227a5c5a5361c4e4423dda6c -->
<g id="node2" class="node"><title>div_1c6dd692227a5c5a5361c4e4423dda6c</title>
<ellipse fill="none" stroke="black" cx="212" cy="-652" rx="85.0596" ry="69.2965"/>
<text text-anchor="middle" x="212" y="-684.4" font-family="Times Roman,serif" font-size="14.00">21</text>
<text text-anchor="middle" x="212" y="-666.4" font-family="Times Roman,serif" font-size="14.00">div</text>
<text text-anchor="middle" x="212" y="-648.4" font-family="Times Roman,serif" font-size="14.00">E:0.52</text>
<text text-anchor="middle" x="212" y="-630.4" font-family="Times Roman,serif" font-size="14.00">P:0.31</text>
<text text-anchor="middle" x="212" y="-612.4" font-family="Times Roman,serif" font-size="14.00">S,L:[0.38,0.38]</text>
</g>
<!-- body_fb5297ef868fa0cb9f752b0297ea2f9c&#45;&gt;div_1c6dd692227a5c5a5361c4e4423dda6c -->
<g id="edge2" class="edge"><title>body_fb5297ef868fa0cb9f752b0297ea2f9c&#45;&gt;div_1c6dd692227a5c5a5361c4e4423dda6c</title>
<path fill="none" stroke="black" d="M467.376,-810.828C420.216,-787.41 358.28,-754.982 306,-722 298.081,-717.004 289.972,-711.543 281.997,-705.944"/>
<polygon fill="black" stroke="black" points="283.925,-703.021 273.748,-700.075 279.867,-708.724 283.925,-703.021"/>
<text text-anchor="middle" x="379" y="-745.4" font-family="Times Roman,serif" font-size="14.00">5.24</text>
</g>
<!-- div_5028d960a1c411b0376de60c6b431ddb -->
<g id="node4" class="node"><title>div_5028d960a1c411b0376de60c6b431ddb</title>
<ellipse fill="none" stroke="black" cx="400" cy="-652" rx="85.0596" ry="69.2965"/>
<text text-anchor="middle" x="400" y="-684.4" font-family="Times Roman,serif" font-size="14.00">46</text>
<text text-anchor="middle" x="400" y="-666.4" font-family="Times Roman,serif" font-size="14.00">div</text>
<text text-anchor="middle" x="400" y="-648.4" font-family="Times Roman,serif" font-size="14.00">E:0.52</text>
<text text-anchor="middle" x="400" y="-630.4" font-family="Times Roman,serif" font-size="14.00">P:0.43</text>
<text text-anchor="middle" x="400" y="-612.4" font-family="Times Roman,serif" font-size="14.00">S,L:[1.12,1.12]</text>
</g>
<!-- body_fb5297ef868fa0cb9f752b0297ea2f9c&#45;&gt;div_5028d960a1c411b0376de60c6b431ddb -->
<g id="edge4" class="edge"><title>body_fb5297ef868fa0cb9f752b0297ea2f9c&#45;&gt;div_5028d960a1c411b0376de60c6b431ddb</title>
<path fill="none" stroke="black" d="M497.545,-786.211C482.334,-765.282 465.143,-741.629 449.477,-720.074"/>
<polygon fill="black" stroke="black" points="452.265,-717.957 443.554,-711.926 446.602,-722.073 452.265,-717.957"/>
<text text-anchor="middle" x="491" y="-745.4" font-family="Times Roman,serif" font-size="14.00">5.24</text>
</g>
<!-- div_40af9b20b50f8afd12f086c6d57bbb4c -->
<g id="node46" class="node"><title>div_40af9b20b50f8afd12f086c6d57bbb4c</title>
<ellipse fill="none" stroke="black" cx="588" cy="-652" rx="85.0596" ry="69.2965"/>
<text text-anchor="middle" x="588" y="-684.4" font-family="Times Roman,serif" font-size="14.00">106</text>
<text text-anchor="middle" x="588" y="-666.4" font-family="Times Roman,serif" font-size="14.00">div</text>
<text text-anchor="middle" x="588" y="-648.4" font-family="Times Roman,serif" font-size="14.00">E:0.49</text>
<text text-anchor="middle" x="588" y="-630.4" font-family="Times Roman,serif" font-size="14.00">P:0.59</text>
<text text-anchor="middle" x="588" y="-612.4" font-family="Times Roman,serif" font-size="14.00">S,L:[1.12,1.12]</text>
</g>
<!-- body_fb5297ef868fa0cb9f752b0297ea2f9c&#45;&gt;div_40af9b20b50f8afd12f086c6d57bbb4c -->
<g id="edge46" class="edge"><title>body_fb5297ef868fa0cb9f752b0297ea2f9c&#45;&gt;div_40af9b20b50f8afd12f086c6d57bbb4c</title>
<path fill="none" stroke="black" d="M557.57,-777.603C561.256,-762.39 565.191,-746.146 568.967,-730.562"/>
<polygon fill="black" stroke="black" points="572.468,-730.976 571.421,-720.433 565.665,-729.328 572.468,-730.976"/>
<text text-anchor="middle" x="582" y="-745.4" font-family="Times Roman,serif" font-size="14.00">4.86</text>
</g>
<!-- div_04d32883fd26eb5879eb216b0933c9d7 -->
<g id="node48" class="node"><title>div_04d32883fd26eb5879eb216b0933c9d7</title>
<ellipse fill="none" stroke="black" cx="776" cy="-652" rx="85.0596" ry="69.2965"/>
<text text-anchor="middle" x="776" y="-684.4" font-family="Times Roman,serif" font-size="14.00">879</text>
<text text-anchor="middle" x="776" y="-666.4" font-family="Times Roman,serif" font-size="14.00">div</text>
<text text-anchor="middle" x="776" y="-648.4" font-family="Times Roman,serif" font-size="14.00">E:0.21</text>
<text text-anchor="middle" x="776" y="-630.4" font-family="Times Roman,serif" font-size="14.00">P:0.83</text>
<text text-anchor="middle" x="776" y="-612.4" font-family="Times Roman,serif" font-size="14.00">S,L:[0.38,0.38]</text>
</g>
<!-- body_fb5297ef868fa0cb9f752b0297ea2f9c&#45;&gt;div_04d32883fd26eb5879eb216b0933c9d7 -->
<g id="edge48" class="edge"><title>body_fb5297ef868fa0cb9f752b0297ea2f9c&#45;&gt;div_04d32883fd26eb5879eb216b0933c9d7</title>
<path fill="none" stroke="black" d="M600.908,-796.544C633.515,-769.626 673.982,-736.219 707.796,-708.305"/>
<polygon fill="black" stroke="black" points="710.309,-710.768 715.793,-701.703 705.853,-705.37 710.309,-710.768"/>
<text text-anchor="middle" x="682" y="-745.4" font-family="Times Roman,serif" font-size="14.00">1.65</text>
</g>
<!-- div_eae5231d49a7966b188aa20d78355f9f -->
<g id="node6" class="node"><title>div_eae5231d49a7966b188aa20d78355f9f</title>
<ellipse fill="none" stroke="black" cx="85" cy="-458" rx="85.0596" ry="69.2965"/>
<text text-anchor="middle" x="85" y="-490.4" font-family="Times Roman,serif" font-size="14.00">47</text>
<text text-anchor="middle" x="85" y="-472.4" font-family="Times Roman,serif" font-size="14.00">div</text>
<text text-anchor="middle" x="85" y="-454.4" font-family="Times Roman,serif" font-size="14.00">E:0.19</text>
<text text-anchor="middle" x="85" y="-436.4" font-family="Times Roman,serif" font-size="14.00">P:0.20</text>
<text text-anchor="middle" x="85" y="-418.4" font-family="Times Roman,serif" font-size="14.00">S,L:[1.50,1.50]</text>
</g>
<!-- div_5028d960a1c411b0376de60c6b431ddb&#45;&gt;div_eae5231d49a7966b188aa20d78355f9f -->
<g id="edge6" class="edge"><title>div_5028d960a1c411b0376de60c6b431ddb&#45;&gt;div_eae5231d49a7966b188aa20d78355f9f</title>
<path fill="none" stroke="black" d="M338.977,-603.33C328.276,-595.742 317.029,-588.331 306,-582 252.805,-551.467 232.195,-558.533 179,-528 170.814,-523.302 162.508,-518.007 154.395,-512.488"/>
<polygon fill="black" stroke="black" points="156.232,-509.502 146.023,-506.67 152.238,-515.251 156.232,-509.502"/>
<text text-anchor="middle" x="284" y="-551.4" font-family="Times Roman,serif" font-size="14.00">1.54</text>
</g>
<!-- div_332885c4c2f4d166e52ebcb920ea963e -->
<g id="node8" class="node"><title>div_332885c4c2f4d166e52ebcb920ea963e</title>
<ellipse fill="none" stroke="black" cx="273" cy="-458" rx="85.0596" ry="69.2965"/>
<text text-anchor="middle" x="273" y="-490.4" font-family="Times Roman,serif" font-size="14.00">51</text>
<text text-anchor="middle" x="273" y="-472.4" font-family="Times Roman,serif" font-size="14.00">div</text>
<text text-anchor="middle" x="273" y="-454.4" font-family="Times Roman,serif" font-size="14.00">E:0.23</text>
<text text-anchor="middle" x="273" y="-436.4" font-family="Times Roman,serif" font-size="14.00">P:0.20</text>
<text text-anchor="middle" x="273" y="-418.4" font-family="Times Roman,serif" font-size="14.00">S,L:[1.50,1.50]</text>
</g>
<!-- div_5028d960a1c411b0376de60c6b431ddb&#45;&gt;div_332885c4c2f4d166e52ebcb920ea963e -->
<g id="edge8" class="edge"><title>div_5028d960a1c411b0376de60c6b431ddb&#45;&gt;div_332885c4c2f4d166e52ebcb920ea963e</title>
<path fill="none" stroke="black" d="M359.816,-590.617C346.723,-570.616 332.094,-548.269 318.631,-527.704"/>
<polygon fill="black" stroke="black" points="321.546,-525.766 313.14,-519.316 315.689,-529.6 321.546,-525.766"/>
<text text-anchor="middle" x="357" y="-551.4" font-family="Times Roman,serif" font-size="14.00">2.32</text>
</g>
<!-- div_1f1d6217e494f2a5456dfd26fb3d00f1 -->
<g id="node18" class="node"><title>div_1f1d6217e494f2a5456dfd26fb3d00f1</title>
<ellipse fill="none" stroke="black" cx="461" cy="-458" rx="85.0596" ry="69.2965"/>
<text text-anchor="middle" x="461" y="-490.4" font-family="Times Roman,serif" font-size="14.00">61</text>
<text text-anchor="middle" x="461" y="-472.4" font-family="Times Roman,serif" font-size="14.00">div</text>
<text text-anchor="middle" x="461" y="-454.4" font-family="Times Roman,serif" font-size="14.00">E:0.23</text>
<text text-anchor="middle" x="461" y="-436.4" font-family="Times Roman,serif" font-size="14.00">P:0.20</text>
<text text-anchor="middle" x="461" y="-418.4" font-family="Times Roman,serif" font-size="14.00">S,L:[1.50,1.50]</text>
</g>
<!-- div_5028d960a1c411b0376de60c6b431ddb&#45;&gt;div_1f1d6217e494f2a5456dfd26fb3d00f1 -->
<g id="edge18" class="edge"><title>div_5028d960a1c411b0376de60c6b431ddb&#45;&gt;div_1f1d6217e494f2a5456dfd26fb3d00f1</title>
<path fill="none" stroke="black" d="M421.249,-584.421C426.232,-568.573 431.579,-551.568 436.685,-535.331"/>
<polygon fill="black" stroke="black" points="440.166,-535.927 439.827,-525.338 433.488,-533.827 440.166,-535.927"/>
<text text-anchor="middle" x="449" y="-551.4" font-family="Times Roman,serif" font-size="14.00">2.32</text>
</g>
<!-- div_9a1cfbc14a2f0c7a38fdadc857cf62de -->
<g id="node20" class="node"><title>div_9a1cfbc14a2f0c7a38fdadc857cf62de</title>
<ellipse fill="none" stroke="black" cx="992" cy="-458" rx="85.0596" ry="69.2965"/>
<text text-anchor="middle" x="992" y="-490.4" font-family="Times Roman,serif" font-size="14.00">62</text>
<text text-anchor="middle" x="992" y="-472.4" font-family="Times Roman,serif" font-size="14.00">div</text>
<text text-anchor="middle" x="992" y="-454.4" font-family="Times Roman,serif" font-size="14.00">E:0.32</text>
<text text-anchor="middle" x="992" y="-436.4" font-family="Times Roman,serif" font-size="14.00">P:0.20</text>
<text text-anchor="middle" x="992" y="-418.4" font-family="Times Roman,serif" font-size="14.00">S,L:[1.50,1.50]</text>
</g>
<!-- div_5028d960a1c411b0376de60c6b431ddb&#45;&gt;div_9a1cfbc14a2f0c7a38fdadc857cf62de -->
<g id="edge20" class="edge"><title>div_5028d960a1c411b0376de60c6b431ddb&#45;&gt;div_9a1cfbc14a2f0c7a38fdadc857cf62de</title>
<path fill="none" stroke="black" d="M459.708,-602.16C470.653,-594.62 482.321,-587.527 494,-582 626.69,-519.198 794.866,-485.871 897.886,-470.093"/>
<polygon fill="black" stroke="black" points="898.59,-473.526 907.957,-468.575 897.547,-466.605 898.59,-473.526"/>
<text text-anchor="middle" x="588" y="-551.4" font-family="Times Roman,serif" font-size="14.00">3.19</text>
</g>
<!-- h2_a8121fb2b73ac0896ff591baf17a1450 -->
<g id="node10" class="node"><title>h2_a8121fb2b73ac0896ff591baf17a1450</title>
<ellipse fill="none" stroke="black" cx="85" cy="-264" rx="85.0596" ry="69.2965"/>
<text text-anchor="middle" x="85" y="-296.4" font-family="Times Roman,serif" font-size="14.00">52</text>
<text text-anchor="middle" x="85" y="-278.4" font-family="Times Roman,serif" font-size="14.00">h2</text>
<text text-anchor="middle" x="85" y="-260.4" font-family="Times Roman,serif" font-size="14.00">E:0.23</text>
<text text-anchor="middle" x="85" y="-242.4" font-family="Times Roman,serif" font-size="14.00">P:0.01</text>
<text text-anchor="middle" x="85" y="-224.4" font-family="Times Roman,serif" font-size="14.00">S,L:[1.88,1.88]</text>
</g>
<!-- div_332885c4c2f4d166e52ebcb920ea963e&#45;&gt;h2_a8121fb2b73ac0896ff591baf17a1450 -->
<g id="edge10" class="edge"><title>div_332885c4c2f4d166e52ebcb920ea963e&#45;&gt;h2_a8121fb2b73ac0896ff591baf17a1450</title>
<path fill="none" stroke="black" d="M220.131,-403.444C196.704,-379.269 169.032,-350.714 144.849,-325.759"/>
<polygon fill="black" stroke="black" points="147.27,-323.228 137.797,-318.482 142.243,-328.099 147.27,-323.228"/>
<text text-anchor="middle" x="201" y="-357.4" font-family="Times Roman,serif" font-size="14.00">1.45</text>
</g>
<!-- ul_68a589c7a7d3169f93df986e60c67ccc -->
<g id="node12" class="node"><title>ul_68a589c7a7d3169f93df986e60c67ccc</title>
<ellipse fill="none" stroke="black" cx="273" cy="-264" rx="85.0596" ry="69.2965"/>
<text text-anchor="middle" x="273" y="-296.4" font-family="Times Roman,serif" font-size="14.00">54</text>
<text text-anchor="middle" x="273" y="-278.4" font-family="Times Roman,serif" font-size="14.00">ul</text>
<text text-anchor="middle" x="273" y="-260.4" font-family="Times Roman,serif" font-size="14.00">E:0.08</text>
<text text-anchor="middle" x="273" y="-242.4" font-family="Times Roman,serif" font-size="14.00">P:0.03</text>
<text text-anchor="middle" x="273" y="-224.4" font-family="Times Roman,serif" font-size="14.00">S,L:[1.88,1.88]</text>
</g>
<!-- div_332885c4c2f4d166e52ebcb920ea963e&#45;&gt;ul_68a589c7a7d3169f93df986e60c67ccc -->
<g id="edge12" class="edge"><title>div_332885c4c2f4d166e52ebcb920ea963e&#45;&gt;ul_68a589c7a7d3169f93df986e60c67ccc</title>
<path fill="none" stroke="black" d="M273,-388.236C273,-373.849 273,-358.593 273,-343.879"/>
<polygon fill="black" stroke="black" points="276.5,-343.797 273,-333.797 269.5,-343.797 276.5,-343.797"/>
<text text-anchor="middle" x="289" y="-357.4" font-family="Times Roman,serif" font-size="14.00">0.76</text>
</g>
<!-- li_71b481aca41fb7b68fe2c6e58df0936e -->
<g id="node14" class="node"><title>li_71b481aca41fb7b68fe2c6e58df0936e</title>
<ellipse fill="none" stroke="black" cx="85" cy="-70" rx="85.0596" ry="69.2965"/>
<text text-anchor="middle" x="85" y="-102.4" font-family="Times Roman,serif" font-size="14.00">55</text>
<text text-anchor="middle" x="85" y="-84.4" font-family="Times Roman,serif" font-size="14.00">li</text>
<text text-anchor="middle" x="85" y="-66.4" font-family="Times Roman,serif" font-size="14.00">E:0.33</text>
<text text-anchor="middle" x="85" y="-48.4" font-family="Times Roman,serif" font-size="14.00">P:0.14</text>
<text text-anchor="middle" x="85" y="-30.4" font-family="Times Roman,serif" font-size="14.00">S,L:[2.25,2.25]</text>
</g>
<!-- ul_68a589c7a7d3169f93df986e60c67ccc&#45;&gt;li_71b481aca41fb7b68fe2c6e58df0936e -->
<g id="edge14" class="edge"><title>ul_68a589c7a7d3169f93df986e60c67ccc&#45;&gt;li_71b481aca41fb7b68fe2c6e58df0936e</title>
<path fill="none" stroke="black" d="M220.131,-209.444C196.704,-185.269 169.032,-156.714 144.849,-131.759"/>
<polygon fill="black" stroke="black" points="147.27,-129.228 137.797,-124.482 142.243,-134.099 147.27,-129.228"/>
<text text-anchor="middle" x="201" y="-163.4" font-family="Times Roman,serif" font-size="14.00">1.63</text>
</g>
<!-- li_8fa63c4628a1b28464ec0fad15faf89e -->
<g id="node16" class="node"><title>li_8fa63c4628a1b28464ec0fad15faf89e</title>
<ellipse fill="none" stroke="black" cx="273" cy="-70" rx="85.0596" ry="69.2965"/>
<text text-anchor="middle" x="273" y="-102.4" font-family="Times Roman,serif" font-size="14.00">58</text>
<text text-anchor="middle" x="273" y="-84.4" font-family="Times Roman,serif" font-size="14.00">li</text>
<text text-anchor="middle" x="273" y="-66.4" font-family="Times Roman,serif" font-size="14.00">E:0.33</text>
<text text-anchor="middle" x="273" y="-48.4" font-family="Times Roman,serif" font-size="14.00">P:0.14</text>
<text text-anchor="middle" x="273" y="-30.4" font-family="Times Roman,serif" font-size="14.00">S,L:[2.25,2.25]</text>
</g>
<!-- ul_68a589c7a7d3169f93df986e60c67ccc&#45;&gt;li_8fa63c4628a1b28464ec0fad15faf89e -->
<g id="edge16" class="edge"><title>ul_68a589c7a7d3169f93df986e60c67ccc&#45;&gt;li_8fa63c4628a1b28464ec0fad15faf89e</title>
<path fill="none" stroke="black" d="M273,-194.236C273,-179.849 273,-164.593 273,-149.879"/>
<polygon fill="black" stroke="black" points="276.5,-149.797 273,-139.797 269.5,-149.797 276.5,-149.797"/>
<text text-anchor="middle" x="289" y="-163.4" font-family="Times Roman,serif" font-size="14.00">1.63</text>
</g>
<!-- h2_3091772360ca76ca8c5f30d4667769e0 -->
<g id="node22" class="node"><title>h2_3091772360ca76ca8c5f30d4667769e0</title>
<ellipse fill="none" stroke="black" cx="931" cy="-264" rx="85.0596" ry="69.2965"/>
<text text-anchor="middle" x="931" y="-296.4" font-family="Times Roman,serif" font-size="14.00">63</text>
<text text-anchor="middle" x="931" y="-278.4" font-family="Times Roman,serif" font-size="14.00">h2</text>
<text text-anchor="middle" x="931" y="-260.4" font-family="Times Roman,serif" font-size="14.00">E:0.23</text>
<text text-anchor="middle" x="931" y="-242.4" font-family="Times Roman,serif" font-size="14.00">P:0.01</text>
<text text-anchor="middle" x="931" y="-224.4" font-family="Times Roman,serif" font-size="14.00">S,L:[1.88,1.88]</text>
</g>
<!-- div_9a1cfbc14a2f0c7a38fdadc857cf62de&#45;&gt;h2_3091772360ca76ca8c5f30d4667769e0 -->
<g id="edge22" class="edge"><title>div_9a1cfbc14a2f0c7a38fdadc857cf62de&#45;&gt;h2_3091772360ca76ca8c5f30d4667769e0</title>
<path fill="none" stroke="black" d="M970.751,-390.421C965.768,-374.573 960.421,-357.568 955.315,-341.331"/>
<polygon fill="black" stroke="black" points="958.512,-339.827 952.173,-331.338 951.834,-341.927 958.512,-339.827"/>
<text text-anchor="middle" x="979" y="-357.4" font-family="Times Roman,serif" font-size="14.00">1.45</text>
</g>
<!-- ul_3e052009a16f91ad24e4ab1a8c48dc35 -->
<g id="node24" class="node"><title>ul_3e052009a16f91ad24e4ab1a8c48dc35</title>
<ellipse fill="none" stroke="black" cx="1119" cy="-264" rx="85.0596" ry="69.2965"/>
<text text-anchor="middle" x="1119" y="-296.4" font-family="Times Roman,serif" font-size="14.00">65</text>
<text text-anchor="middle" x="1119" y="-278.4" font-family="Times Roman,serif" font-size="14.00">ul</text>
<text text-anchor="middle" x="1119" y="-260.4" font-family="Times Roman,serif" font-size="14.00">E:0.08</text>
<text text-anchor="middle" x="1119" y="-242.4" font-family="Times Roman,serif" font-size="14.00">P:0.03</text>
<text text-anchor="middle" x="1119" y="-224.4" font-family="Times Roman,serif" font-size="14.00">S,L:[1.88,1.88]</text>
</g>
<!-- div_9a1cfbc14a2f0c7a38fdadc857cf62de&#45;&gt;ul_3e052009a16f91ad24e4ab1a8c48dc35 -->
<g id="edge24" class="edge"><title>div_9a1cfbc14a2f0c7a38fdadc857cf62de&#45;&gt;ul_3e052009a16f91ad24e4ab1a8c48dc35</title>
<path fill="none" stroke="black" d="M1032.18,-396.617C1045.28,-376.616 1059.91,-354.269 1073.37,-333.704"/>
<polygon fill="black" stroke="black" points="1076.31,-335.6 1078.86,-325.316 1070.45,-331.766 1076.31,-335.6"/>
<text text-anchor="middle" x="1075" y="-357.4" font-family="Times Roman,serif" font-size="14.00">0.76</text>
</g>
<!-- form_ddd08aa1c13b14db3bbefbfb0cb6e8ec -->
<g id="node44" class="node"><title>form_ddd08aa1c13b14db3bbefbfb0cb6e8ec</title>
<ellipse fill="none" stroke="black" cx="1307" cy="-264" rx="85.0596" ry="69.2965"/>
<text text-anchor="middle" x="1307" y="-296.4" font-family="Times Roman,serif" font-size="14.00">94</text>
<text text-anchor="middle" x="1307" y="-278.4" font-family="Times Roman,serif" font-size="14.00">form</text>
<text text-anchor="middle" x="1307" y="-260.4" font-family="Times Roman,serif" font-size="14.00">E:0.52</text>
<text text-anchor="middle" x="1307" y="-242.4" font-family="Times Roman,serif" font-size="14.00">P:0.00</text>
<text text-anchor="middle" x="1307" y="-224.4" font-family="Times Roman,serif" font-size="14.00">S,L:[2.25,2.25]</text>
</g>
<!-- div_9a1cfbc14a2f0c7a38fdadc857cf62de&#45;&gt;form_ddd08aa1c13b14db3bbefbfb0cb6e8ec -->
<g id="edge44" class="edge"><title>div_9a1cfbc14a2f0c7a38fdadc857cf62de&#45;&gt;form_ddd08aa1c13b14db3bbefbfb0cb6e8ec</title>
<path fill="none" stroke="black" d="M1063.79,-420.756C1107.7,-397.233 1164.56,-365.437 1213,-334 1220.85,-328.903 1228.92,-323.376 1236.87,-317.739"/>
<polygon fill="black" stroke="black" points="1239.01,-320.51 1245.1,-311.839 1234.93,-314.821 1239.01,-320.51"/>
<text text-anchor="middle" x="1199" y="-357.4" font-family="Times Roman,serif" font-size="14.00">3.27</text>
</g>
<!-- li_0e9da5a6723a672e5abedeab1d2c12eb -->
<g id="node26" class="node"><title>li_0e9da5a6723a672e5abedeab1d2c12eb</title>
<ellipse fill="none" stroke="black" cx="461" cy="-70" rx="85.0596" ry="69.2965"/>
<text text-anchor="middle" x="461" y="-102.4" font-family="Times Roman,serif" font-size="14.00">66</text>
<text text-anchor="middle" x="461" y="-84.4" font-family="Times Roman,serif" font-size="14.00">li</text>
<text text-anchor="middle" x="461" y="-66.4" font-family="Times Roman,serif" font-size="14.00">E:0.33</text>
<text text-anchor="middle" x="461" y="-48.4" font-family="Times Roman,serif" font-size="14.00">P:0.14</text>
<text text-anchor="middle" x="461" y="-30.4" font-family="Times Roman,serif" font-size="14.00">S,L:[2.25,2.25]</text>
</g>
<!-- ul_3e052009a16f91ad24e4ab1a8c48dc35&#45;&gt;li_0e9da5a6723a672e5abedeab1d2c12eb -->
<g id="edge26" class="edge"><title>ul_3e052009a16f91ad24e4ab1a8c48dc35&#45;&gt;li_0e9da5a6723a672e5abedeab1d2c12eb</title>
<path fill="none" stroke="black" d="M1061.08,-213.069C1049.76,-205.45 1037.5,-198.615 1025,-194 969.003,-173.332 816.248,-183.247 757,-176 666.482,-164.928 638.699,-176.202 555,-140 545.966,-136.092 536.989,-131.162 528.371,-125.735"/>
<polygon fill="black" stroke="black" points="530.164,-122.725 519.884,-120.162 526.322,-128.577 530.164,-122.725"/>
<text text-anchor="middle" x="773" y="-163.4" font-family="Times Roman,serif" font-size="14.00">1.63</text>
</g>
<!-- li_94ea8ef314f3858e49ef279d3fafd1ee -->
<g id="node28" class="node"><title>li_94ea8ef314f3858e49ef279d3fafd1ee</title>
<ellipse fill="none" stroke="black" cx="649" cy="-70" rx="85.0596" ry="69.2965"/>
<text text-anchor="middle" x="649" y="-102.4" font-family="Times Roman,serif" font-size="14.00">69</text>
<text text-anchor="middle" x="649" y="-84.4" font-family="Times Roman,serif" font-size="14.00">li</text>
<text text-anchor="middle" x="649" y="-66.4" font-family="Times Roman,serif" font-size="14.00">E:0.33</text>
<text text-anchor="middle" x="649" y="-48.4" font-family="Times Roman,serif" font-size="14.00">P:0.14</text>
<text text-anchor="middle" x="649" y="-30.4" font-family="Times Roman,serif" font-size="14.00">S,L:[2.25,2.25]</text>
</g>
<!-- ul_3e052009a16f91ad24e4ab1a8c48dc35&#45;&gt;li_94ea8ef314f3858e49ef279d3fafd1ee -->
<g id="edge28" class="edge"><title>ul_3e052009a16f91ad24e4ab1a8c48dc35&#45;&gt;li_94ea8ef314f3858e49ef279d3fafd1ee</title>
<path fill="none" stroke="black" d="M1060.11,-213.855C1048.98,-206.254 1037.04,-199.22 1025,-194 983.568,-176.037 969.374,-184.382 925,-176 843.977,-160.696 818.367,-173.448 743,-140 734.073,-136.038 725.189,-131.101 716.645,-125.694"/>
<polygon fill="black" stroke="black" points="718.503,-122.726 708.227,-120.148 714.652,-128.572 718.503,-122.726"/>
<text text-anchor="middle" x="941" y="-163.4" font-family="Times Roman,serif" font-size="14.00">1.63</text>
</g>
<!-- li_f35a91a9918fcd455f641ed50a78225e -->
<g id="node30" class="node"><title>li_f35a91a9918fcd455f641ed50a78225e</title>
<ellipse fill="none" stroke="black" cx="837" cy="-70" rx="85.0596" ry="69.2965"/>
<text text-anchor="middle" x="837" y="-102.4" font-family="Times Roman,serif" font-size="14.00">72</text>
<text text-anchor="middle" x="837" y="-84.4" font-family="Times Roman,serif" font-size="14.00">li</text>
<text text-anchor="middle" x="837" y="-66.4" font-family="Times Roman,serif" font-size="14.00">E:0.33</text>
<text text-anchor="middle" x="837" y="-48.4" font-family="Times Roman,serif" font-size="14.00">P:0.14</text>
<text text-anchor="middle" x="837" y="-30.4" font-family="Times Roman,serif" font-size="14.00">S,L:[2.25,2.25]</text>
</g>
<!-- ul_3e052009a16f91ad24e4ab1a8c48dc35&#45;&gt;li_f35a91a9918fcd455f641ed50a78225e -->
<g id="edge30" class="edge"><title>ul_3e052009a16f91ad24e4ab1a8c48dc35&#45;&gt;li_f35a91a9918fcd455f641ed50a78225e</title>
<path fill="none" stroke="black" d="M1057.04,-216.253C1046.5,-208.596 1035.55,-200.922 1025,-194 984.719,-167.565 971.281,-166.435 931,-140 923.172,-134.863 915.121,-129.311 907.181,-123.659"/>
<polygon fill="black" stroke="black" points="909.121,-120.744 898.959,-117.747 905.034,-126.427 909.121,-120.744"/>
<text text-anchor="middle" x="1010" y="-163.4" font-family="Times Roman,serif" font-size="14.00">1.63</text>
</g>
<!-- li_5837144e359b726584736281b919c4de -->
<g id="node32" class="node"><title>li_5837144e359b726584736281b919c4de</title>
<ellipse fill="none" stroke="black" cx="1025" cy="-70" rx="85.0596" ry="69.2965"/>
<text text-anchor="middle" x="1025" y="-102.4" font-family="Times Roman,serif" font-size="14.00">75</text>
<text text-anchor="middle" x="1025" y="-84.4" font-family="Times Roman,serif" font-size="14.00">li</text>
<text text-anchor="middle" x="1025" y="-66.4" font-family="Times Roman,serif" font-size="14.00">E:0.33</text>
<text text-anchor="middle" x="1025" y="-48.4" font-family="Times Roman,serif" font-size="14.00">P:0.24</text>
<text text-anchor="middle" x="1025" y="-30.4" font-family="Times Roman,serif" font-size="14.00">S,L:[2.25,2.25]</text>
</g>
<!-- ul_3e052009a16f91ad24e4ab1a8c48dc35&#45;&gt;li_5837144e359b726584736281b919c4de -->
<g id="edge32" class="edge"><title>ul_3e052009a16f91ad24e4ab1a8c48dc35&#45;&gt;li_5837144e359b726584736281b919c4de</title>
<path fill="none" stroke="black" d="M1087.57,-199.131C1079.02,-181.497 1069.71,-162.265 1060.93,-144.159"/>
<polygon fill="black" stroke="black" points="1063.91,-142.281 1056.4,-134.808 1057.61,-145.333 1063.91,-142.281"/>
<text text-anchor="middle" x="1090" y="-163.4" font-family="Times Roman,serif" font-size="14.00">1.67</text>
</g>
<!-- li_f17f91eeb5281ff2fedea5366ff2f1ca -->
<g id="node34" class="node"><title>li_f17f91eeb5281ff2fedea5366ff2f1ca</title>
<ellipse fill="none" stroke="black" cx="1213" cy="-70" rx="85.0596" ry="69.2965"/>
<text text-anchor="middle" x="1213" y="-102.4" font-family="Times Roman,serif" font-size="14.00">78</text>
<text text-anchor="middle" x="1213" y="-84.4" font-family="Times Roman,serif" font-size="14.00">li</text>
<text text-anchor="middle" x="1213" y="-66.4" font-family="Times Roman,serif" font-size="14.00">E:0.33</text>
<text text-anchor="middle" x="1213" y="-48.4" font-family="Times Roman,serif" font-size="14.00">P:0.24</text>
<text text-anchor="middle" x="1213" y="-30.4" font-family="Times Roman,serif" font-size="14.00">S,L:[2.25,2.25]</text>
</g>
<!-- ul_3e052009a16f91ad24e4ab1a8c48dc35&#45;&gt;li_f17f91eeb5281ff2fedea5366ff2f1ca -->
<g id="edge34" class="edge"><title>ul_3e052009a16f91ad24e4ab1a8c48dc35&#45;&gt;li_f17f91eeb5281ff2fedea5366ff2f1ca</title>
<path fill="none" stroke="black" d="M1150.43,-199.131C1158.98,-181.497 1168.29,-162.265 1177.07,-144.159"/>
<polygon fill="black" stroke="black" points="1180.39,-145.333 1181.6,-134.808 1174.09,-142.281 1180.39,-145.333"/>
<text text-anchor="middle" x="1184" y="-163.4" font-family="Times Roman,serif" font-size="14.00">1.67</text>
</g>
<!-- li_7e04761a2f6a079eea0140928f5b6fd8 -->
<g id="node36" class="node"><title>li_7e04761a2f6a079eea0140928f5b6fd8</title>
<ellipse fill="none" stroke="black" cx="1401" cy="-70" rx="85.0596" ry="69.2965"/>
<text text-anchor="middle" x="1401" y="-102.4" font-family="Times Roman,serif" font-size="14.00">81</text>
<text text-anchor="middle" x="1401" y="-84.4" font-family="Times Roman,serif" font-size="14.00">li</text>
<text text-anchor="middle" x="1401" y="-66.4" font-family="Times Roman,serif" font-size="14.00">E:0.33</text>
<text text-anchor="middle" x="1401" y="-48.4" font-family="Times Roman,serif" font-size="14.00">P:0.24</text>
<text text-anchor="middle" x="1401" y="-30.4" font-family="Times Roman,serif" font-size="14.00">S,L:[2.25,2.25]</text>
</g>
<!-- ul_3e052009a16f91ad24e4ab1a8c48dc35&#45;&gt;li_7e04761a2f6a079eea0140928f5b6fd8 -->
<g id="edge36" class="edge"><title>ul_3e052009a16f91ad24e4ab1a8c48dc35&#45;&gt;li_7e04761a2f6a079eea0140928f5b6fd8</title>
<path fill="none" stroke="black" d="M1180.96,-216.253C1191.5,-208.596 1202.45,-200.922 1213,-194 1253.28,-167.565 1266.72,-166.435 1307,-140 1314.83,-134.863 1322.88,-129.311 1330.82,-123.659"/>
<polygon fill="black" stroke="black" points="1332.97,-126.427 1339.04,-117.747 1328.88,-120.744 1332.97,-126.427"/>
<text text-anchor="middle" x="1292" y="-163.4" font-family="Times Roman,serif" font-size="14.00">1.67</text>
</g>
<!-- li_05763edae37108c3d8899dbb7da9ebf2 -->
<g id="node38" class="node"><title>li_05763edae37108c3d8899dbb7da9ebf2</title>
<ellipse fill="none" stroke="black" cx="1589" cy="-70" rx="85.0596" ry="69.2965"/>
<text text-anchor="middle" x="1589" y="-102.4" font-family="Times Roman,serif" font-size="14.00">84</text>
<text text-anchor="middle" x="1589" y="-84.4" font-family="Times Roman,serif" font-size="14.00">li</text>
<text text-anchor="middle" x="1589" y="-66.4" font-family="Times Roman,serif" font-size="14.00">E:0.33</text>
<text text-anchor="middle" x="1589" y="-48.4" font-family="Times Roman,serif" font-size="14.00">P:0.24</text>
<text text-anchor="middle" x="1589" y="-30.4" font-family="Times Roman,serif" font-size="14.00">S,L:[2.25,2.25]</text>
</g>
<!-- ul_3e052009a16f91ad24e4ab1a8c48dc35&#45;&gt;li_05763edae37108c3d8899dbb7da9ebf2 -->
<g id="edge38" class="edge"><title>ul_3e052009a16f91ad24e4ab1a8c48dc35&#45;&gt;li_05763edae37108c3d8899dbb7da9ebf2</title>
<path fill="none" stroke="black" d="M1177.9,-213.873C1189.03,-206.27 1200.96,-199.231 1213,-194 1254.02,-176.175 1268.06,-184.316 1312,-176 1393.45,-160.586 1419.22,-173.585 1495,-140 1503.93,-136.043 1512.81,-131.109 1521.36,-125.703"/>
<polygon fill="black" stroke="black" points="1523.35,-128.582 1529.78,-120.159 1519.5,-122.735 1523.35,-128.582"/>
<text text-anchor="middle" x="1460" y="-163.4" font-family="Times Roman,serif" font-size="14.00">1.67</text>
</g>
<!-- li_6c3885921614e43213b8e1652152ac86 -->
<g id="node40" class="node"><title>li_6c3885921614e43213b8e1652152ac86</title>
<ellipse fill="none" stroke="black" cx="1777" cy="-70" rx="85.0596" ry="69.2965"/>
<text text-anchor="middle" x="1777" y="-102.4" font-family="Times Roman,serif" font-size="14.00">87</text>
<text text-anchor="middle" x="1777" y="-84.4" font-family="Times Roman,serif" font-size="14.00">li</text>
<text text-anchor="middle" x="1777" y="-66.4" font-family="Times Roman,serif" font-size="14.00">E:0.33</text>
<text text-anchor="middle" x="1777" y="-48.4" font-family="Times Roman,serif" font-size="14.00">P:0.24</text>
<text text-anchor="middle" x="1777" y="-30.4" font-family="Times Roman,serif" font-size="14.00">S,L:[2.25,2.25]</text>
</g>
<!-- ul_3e052009a16f91ad24e4ab1a8c48dc35&#45;&gt;li_6c3885921614e43213b8e1652152ac86 -->
<g id="edge40" class="edge"><title>ul_3e052009a16f91ad24e4ab1a8c48dc35&#45;&gt;li_6c3885921614e43213b8e1652152ac86</title>
<path fill="none" stroke="black" d="M1176.92,-213.071C1188.24,-205.453 1200.5,-198.616 1213,-194 1268.79,-173.402 1420.97,-183.203 1480,-176 1570.96,-164.902 1598.88,-176.34 1683,-140 1692.04,-136.096 1701.01,-131.168 1709.63,-125.743"/>
<polygon fill="black" stroke="black" points="1711.68,-128.585 1718.12,-120.171 1707.84,-122.733 1711.68,-128.585"/>
<text text-anchor="middle" x="1646" y="-163.4" font-family="Times Roman,serif" font-size="14.00">1.67</text>
</g>
<!-- li_cd14c2716ca8a94792023d1c283fa91d -->
<g id="node42" class="node"><title>li_cd14c2716ca8a94792023d1c283fa91d</title>
<ellipse fill="none" stroke="black" cx="1965" cy="-70" rx="85.0596" ry="69.2965"/>
<text text-anchor="middle" x="1965" y="-102.4" font-family="Times Roman,serif" font-size="14.00">90</text>
<text text-anchor="middle" x="1965" y="-84.4" font-family="Times Roman,serif" font-size="14.00">li</text>
<text text-anchor="middle" x="1965" y="-66.4" font-family="Times Roman,serif" font-size="14.00">E:0.33</text>
<text text-anchor="middle" x="1965" y="-48.4" font-family="Times Roman,serif" font-size="14.00">P:0.24</text>
<text text-anchor="middle" x="1965" y="-30.4" font-family="Times Roman,serif" font-size="14.00">S,L:[2.25,2.25]</text>
</g>
<!-- ul_3e052009a16f91ad24e4ab1a8c48dc35&#45;&gt;li_cd14c2716ca8a94792023d1c283fa91d -->
<g id="edge42" class="edge"><title>ul_3e052009a16f91ad24e4ab1a8c48dc35&#45;&gt;li_cd14c2716ca8a94792023d1c283fa91d</title>
<path fill="none" stroke="black" d="M1176.81,-212.784C1188.15,-205.195 1200.43,-198.443 1213,-194 1307.98,-160.412 1565.83,-186.737 1666,-176 1757.98,-166.141 1786.05,-176.616 1871,-140 1880.04,-136.104 1889.02,-131.181 1897.64,-125.758"/>
<polygon fill="black" stroke="black" points="1899.69,-128.6 1906.13,-120.188 1895.85,-122.748 1899.69,-128.6"/>
<text text-anchor="middle" x="1837" y="-163.4" font-family="Times Roman,serif" font-size="14.00">1.67</text>
</g>
</g>
</svg>
